<?xml version="1.0" standalone="no"?>
<!DOCTYPE svg PUBLIC "-//W3C//DTD SVG 20010904//EN"
 "http://www.w3.org/TR/2001/REC-SVG-20010904/DTD/svg10.dtd">
<svg version="1.0" xmlns="http://www.w3.org/2000/svg"
 width="600.000000pt" height="600.000000pt" viewBox="0 0 600.000000 600.000000"
 preserveAspectRatio="xMidYMid meet">
<g transform="translate(0.000000,600.000000) scale(0.100000,-0.100000)"
fill="#000000" stroke="none">
<path d="M2986 4879 c-16 -4 -33 -6 -37 -3 -4 2 -10 0 -14 -6 -3 -5 -11 -10
-16 -10 -6 0 -7 5 -3 12 4 7 3 8 -5 4 -6 -4 -9 -11 -6 -15 2 -5 -13 -16 -35
-26 -21 -10 -38 -20 -37 -24 1 -3 -18 -25 -41 -49 -23 -24 -42 -49 -42 -55 0
-7 -6 -23 -13 -37 -19 -38 -12 -159 12 -224 19 -52 19 -60 -1 -57 -5 0 -8 -3
-8 -9 0 -12 -97 -64 -125 -67 -54 -5 -73 -11 -95 -26 -13 -9 -27 -14 -31 -12
-4 3 -10 -2 -13 -11 -3 -8 -11 -12 -17 -8 -8 5 -9 3 -4 -6 6 -10 2 -11 -19 -6
-17 4 -34 2 -42 -5 -8 -7 -17 -9 -20 -6 -3 3 -16 -5 -28 -17 -11 -13 -39 -28
-61 -35 -22 -6 -51 -21 -65 -34 -33 -30 -72 -101 -65 -119 3 -8 -4 -25 -15
-38 -39 -45 -39 -111 0 -152 11 -12 18 -28 16 -34 -6 -15 39 -79 80 -115 38
-33 114 -55 142 -40 10 6 22 7 26 4 3 -3 6 -1 6 5 0 7 5 12 11 12 5 0 7 -4 4
-10 -3 -5 -1 -10 5 -10 7 0 10 -6 7 -14 -3 -8 2 -23 11 -33 23 -24 87 -69 77
-54 -5 9 -2 10 11 3 41 -20 86 -30 141 -30 70 1 110 -9 117 -28 3 -7 12 -11
20 -8 8 3 24 0 36 -6 16 -8 19 -17 14 -33 -4 -12 -6 -50 -5 -85 2 -69 -3 -84
-24 -76 -8 4 -12 10 -9 15 3 5 -2 6 -10 3 -8 -3 -21 -2 -28 3 -16 10 -118 11
-112 1 3 -4 -8 -1 -23 7 -34 18 -95 19 -111 3 -7 -7 -12 -8 -12 -4 0 5 -10 2
-22 -6 -27 -17 -78 -29 -78 -17 0 4 6 10 13 12 9 4 9 6 -1 6 -7 1 -15 -6 -18
-14 -4 -8 -23 -23 -43 -32 -20 -10 -47 -29 -60 -43 -13 -14 -31 -24 -40 -22
-12 2 -13 1 -3 -6 10 -6 8 -13 -7 -26 -22 -20 -40 -65 -42 -111 -3 -37 10 -95
20 -95 4 0 14 -12 21 -27 8 -16 25 -43 38 -60 12 -18 18 -33 12 -33 -6 0 -8
-5 -5 -10 4 -6 11 -8 16 -5 5 4 21 -3 36 -15 15 -11 36 -20 47 -19 13 2 37
-12 60 -34 22 -20 43 -34 47 -32 4 3 9 0 11 -7 2 -6 17 -13 34 -14 16 -2 52
-7 79 -12 31 -5 61 -4 78 2 22 9 30 8 37 -4 5 -8 10 -11 10 -6 0 5 7 3 15 -4
8 -7 15 -9 15 -5 0 4 6 2 13 -4 8 -6 18 -7 22 -3 5 4 5 1 1 -5 -4 -7 -2 -13 4
-13 7 0 10 -10 6 -27 -3 -16 -7 -63 -8 -106 -1 -43 -6 -81 -10 -83 -4 -3 -5
-11 -2 -19 8 -20 -30 -78 -62 -95 -25 -14 -132 -19 -164 -8 -8 3 -27 8 -42 13
-16 4 -28 11 -28 17 0 5 -4 7 -9 3 -9 -5 -36 8 -108 52 -59 35 -149 115 -210
185 -35 40 -30 48 32 48 35 0 75 31 75 57 0 7 -16 23 -35 36 -19 13 -32 27
-27 32 4 4 0 6 -9 2 -10 -3 -26 3 -37 14 -12 10 -25 19 -30 19 -19 0 -123 110
-116 122 4 7 3 10 -1 5 -13 -11 -44 23 -38 41 4 10 2 13 -5 8 -7 -4 -12 -1
-12 9 0 9 -4 14 -9 11 -5 -4 -18 11 -28 33 -10 21 -29 46 -43 54 -23 14 -26
14 -47 -11 -13 -15 -23 -31 -23 -37 0 -5 -5 -3 -11 5 -9 12 -10 12 -5 -4 4
-10 1 -25 -6 -33 -7 -8 -13 -24 -15 -34 -2 -11 -10 -31 -19 -44 -9 -14 -13
-25 -10 -25 4 0 -1 -15 -11 -32 -14 -27 -18 -63 -19 -208 -2 -179 5 -223 37
-251 10 -9 15 -20 11 -25 -21 -25 38 27 66 58 32 35 34 36 50 19 9 -10 24 -30
33 -45 49 -85 257 -292 351 -348 18 -11 35 -24 38 -28 3 -4 15 -10 28 -14 12
-4 19 -12 16 -18 -4 -6 -2 -8 4 -4 6 3 16 0 24 -7 7 -7 28 -20 46 -28 17 -7
32 -17 32 -21 0 -5 6 -8 13 -8 7 0 18 -5 25 -12 6 -6 19 -13 28 -14 9 -2 42
-16 74 -33 31 -17 60 -28 64 -24 3 3 6 1 6 -5 0 -6 23 -21 50 -33 28 -12 50
-25 50 -30 0 -5 3 -8 8 -7 15 4 107 -60 149 -104 14 -15 29 -25 33 -23 5 3 10
-2 14 -10 3 -8 13 -15 21 -15 9 0 14 -4 10 -9 -3 -6 3 -9 14 -8 11 0 18 4 15
8 -2 4 4 13 13 20 14 12 16 12 8 -1 -4 -8 2 -5 14 8 12 12 25 22 29 22 4 0 21
14 39 30 18 17 36 30 42 30 5 0 17 7 25 16 20 19 263 144 282 144 8 0 14 5 14
12 0 6 3 8 7 5 3 -4 12 -2 20 4 7 6 13 8 13 3 0 -5 4 -4 8 1 4 6 23 18 42 28
65 33 176 102 211 130 64 53 69 57 77 57 4 0 43 39 87 86 44 48 94 101 111
120 17 18 29 36 26 39 -3 3 0 5 7 5 7 0 9 5 6 10 -3 6 -2 10 4 10 5 0 12 8 16
18 3 9 14 27 24 40 l19 22 39 -39 c21 -21 45 -40 53 -43 25 -8 48 35 66 123
15 74 16 98 5 195 -12 114 -38 216 -67 258 -8 14 -12 31 -8 37 4 7 3 9 -2 6
-6 -3 -16 8 -23 24 -7 16 -24 35 -38 43 -23 11 -28 11 -43 -4 -10 -10 -19 -21
-21 -26 -15 -34 -56 -83 -67 -79 -7 3 -10 0 -7 -6 9 -14 -22 -59 -41 -59 -8 0
-13 -4 -10 -9 7 -11 -64 -81 -82 -81 -7 0 -15 -7 -18 -15 -4 -8 -10 -12 -15
-9 -5 3 -9 2 -9 -3 0 -13 -66 -54 -81 -51 -7 2 -13 -2 -14 -9 0 -6 -3 -15 -7
-19 -15 -15 -8 -44 15 -59 13 -8 44 -15 70 -16 l47 -2 -37 -46 c-43 -53 -144
-150 -157 -151 -5 0 -15 -8 -22 -17 -7 -10 -15 -15 -18 -12 -9 9 -10 58 -3 91
6 29 -29 106 -69 149 -13 14 -22 28 -19 32 3 4 2 5 -1 2 -4 -2 -29 7 -57 21
-47 24 -59 26 -99 9 -14 -6 -18 -2 -18 15 0 27 -45 90 -64 90 -8 0 -19 7 -26
15 -7 9 -15 13 -18 11 -2 -3 -14 0 -26 6 -18 10 -31 12 -82 17 -18 2 -12 170
5 181 13 8 48 -5 61 -22 3 -4 38 -8 78 -9 39 -1 69 -5 67 -9 -12 -20 215 -26
280 -8 22 6 43 11 48 10 4 -1 7 2 7 8 0 6 4 9 9 8 29 -8 123 93 126 134 1 10
9 26 18 36 62 69 -27 249 -132 267 -30 5 -44 14 -53 32 -7 15 -37 38 -68 54
-30 16 -59 32 -65 37 -17 13 -79 29 -105 26 -84 -10 -90 -9 -93 24 0 11 -4 19
-8 16 -4 -2 -20 1 -36 8 -15 6 -57 19 -93 27 l-65 16 -3 112 -3 112 53 0 c105
-1 117 1 146 26 60 50 49 151 -21 188 -25 13 -51 17 -112 15 l-80 -3 -6 43
c-6 49 9 88 34 86 9 -1 14 2 11 7 -3 5 1 9 8 9 23 0 97 94 118 150 20 54 33
190 18 190 -5 0 -8 6 -8 13 0 26 -55 114 -95 152 -45 43 -91 69 -140 80 -51
11 -119 13 -149 4z m179 -40 c145 -54 225 -220 180 -374 -14 -48 -28 -70 -81
-123 -36 -36 -68 -62 -71 -58 -4 4 -6 24 -4 44 1 21 -5 50 -13 66 -14 28 -13
31 9 58 55 65 52 157 -8 219 -53 56 -125 73 -190 45 -39 -16 -94 -76 -103
-112 -10 -41 3 -104 29 -141 23 -32 24 -37 11 -61 -8 -15 -14 -44 -14 -64 0
-21 -4 -38 -9 -38 -19 0 -98 88 -121 135 -21 41 -25 65 -25 135 0 76 3 91 30
140 33 61 108 123 164 138 64 17 156 13 216 -9z m-52 -150 c65 -35 107 -125
80 -176 -29 -55 -51 -71 -88 -63 -19 4 -59 6 -90 5 -66 -4 -92 13 -105 68 -14
64 20 138 74 162 39 17 100 19 129 4z m32 -292 c7 -18 15 -83 18 -145 5 -99 4
-113 -9 -108 -9 3 -63 6 -121 6 l-105 0 4 120 c4 105 7 122 25 142 20 21 29
23 98 20 76 -4 77 -4 90 -35z m-355 -26 c0 -5 -19 -25 -42 -45 -24 -19 -40
-37 -38 -40 7 -7 93 32 102 47 4 6 10 8 14 4 8 -7 -59 -75 -101 -103 -14 -9
-24 -23 -21 -30 6 -16 -79 -96 -121 -113 -34 -14 -67 -9 -61 9 2 6 35 28 73
49 39 20 75 48 82 61 6 12 25 32 42 42 17 11 31 22 31 24 0 5 -53 -18 -70 -31
-8 -7 -48 -30 -87 -51 -40 -21 -73 -45 -73 -51 0 -7 -4 -13 -8 -13 -5 0 -17
-7 -28 -16 -19 -15 -19 -15 2 -9 16 4 23 0 27 -16 4 -15 -5 -32 -38 -64 -56
-57 -101 -81 -121 -64 -24 20 -16 36 46 85 69 54 78 72 20 41 -32 -18 -41 -20
-52 -9 -11 11 -7 19 21 42 19 16 48 32 65 35 56 12 173 76 212 117 37 39 31
44 -11 8 -11 -10 -33 -21 -50 -24 -16 -4 -50 -23 -76 -42 -46 -33 -47 -33 -52
-12 -3 12 -4 25 -1 30 10 16 79 45 124 52 24 4 52 14 61 22 9 8 26 16 37 19
12 2 34 15 49 29 29 27 43 32 43 17z m88 -80 l33 -13 -3 -67 -3 -66 -80 -2
c-44 -1 -91 0 -104 3 -22 5 -22 6 -7 23 9 10 16 23 16 29 0 6 9 14 20 17 11 3
20 10 20 14 0 4 9 17 20 29 12 12 17 22 13 22 -4 0 2 7 13 15 10 8 21 13 24
12 3 -2 20 -9 38 -16z m-411 -98 c2 -5 -19 -20 -47 -33 -27 -13 -59 -33 -71
-46 -12 -12 -27 -20 -34 -18 -13 6 -39 -17 -82 -74 -20 -25 -29 -30 -39 -21
-41 34 21 134 98 160 26 8 55 23 65 32 31 27 66 37 87 23 11 -7 21 -17 23 -23z
m203 -93 c-6 -12 -12 -44 -12 -72 -1 -43 2 -54 20 -66 12 -8 22 -20 22 -27 0
-8 23 -13 72 -14 89 -2 120 -9 111 -24 -4 -7 -7 -40 -8 -76 l0 -64 -45 -2
c-25 -1 -61 4 -80 12 -19 8 -37 14 -40 14 -3 0 -16 7 -28 15 -13 9 -26 14 -28
11 -3 -3 -24 1 -47 8 -34 10 -75 12 -94 6 -2 -1 -5 0 -8 2 -2 1 -11 -7 -19
-18 -15 -20 -15 -20 -16 3 0 12 1 23 3 25 2 3 -15 25 -50 63 l-22 24 23 25
c13 14 26 25 29 25 4 0 24 18 46 40 36 36 51 45 74 41 4 0 7 4 7 9 0 6 7 10
15 10 8 0 15 6 16 13 0 8 2 9 5 0 3 -7 14 -2 29 13 29 29 39 31 25 4z m722 8
c8 -7 20 -21 25 -32 14 -25 -1 -97 -23 -113 -14 -10 -91 -13 -345 -13 l-328 0
-20 26 c-25 32 -28 90 -5 122 15 22 15 22 348 22 251 0 336 -3 348 -12z
m-1038 -47 c3 -4 -1 -16 -8 -26 -9 -13 -19 -16 -32 -10 -10 4 -22 7 -26 7 -5
-1 -8 5 -8 14 0 8 4 13 9 9 5 -3 12 -1 16 5 8 12 42 13 49 1z m-98 -70 c-18
-34 -19 -41 -8 -41 4 0 13 14 19 31 14 36 46 37 51 2 2 -11 32 -51 68 -87 60
-62 77 -97 54 -111 -20 -13 -103 57 -121 101 l-12 29 -6 -25 c-11 -39 -38 -37
-63 6 -20 34 -23 35 -31 17 -7 -15 -1 -32 26 -74 41 -64 59 -81 112 -106 52
-24 56 -56 8 -61 -65 -6 -151 64 -170 136 -3 14 -14 33 -23 42 -27 27 -34 74
-15 109 16 32 33 39 51 21 7 -7 20 0 39 20 34 36 42 33 21 -9z m659 -71 c3 -5
1 -10 -4 -10 -6 0 -11 5 -11 10 0 6 2 10 4 10 3 0 8 -4 11 -10z m273 -126 c2
-86 1 -96 -14 -90 -17 6 -118 29 -216 48 l-58 12 0 65 0 66 142 -2 143 -2 3
-97z m-881 14 c-11 -17 -13 -17 -24 -1 -15 20 -17 37 -4 28 5 -3 13 0 17 6 5
8 9 8 14 -2 5 -7 3 -21 -3 -31z m75 -18 c18 -11 41 -20 50 -20 9 0 38 -11 65
-24 27 -14 61 -29 76 -35 31 -12 46 -39 28 -51 -17 -10 -150 33 -222 73 -45
24 -59 37 -59 55 0 28 19 28 62 2z m271 -12 c38 -13 79 -32 91 -43 18 -16 26
-18 44 -9 14 7 43 8 84 2 80 -10 197 -39 203 -48 3 -5 22 -6 43 -3 48 6 216
-32 259 -58 34 -21 46 -62 21 -72 -7 -3 -4 -6 7 -7 29 -2 130 -53 128 -65 -4
-27 -34 -26 -130 4 -56 17 -103 38 -106 45 -9 22 13 35 52 30 29 -4 33 -3 19
6 -19 12 -164 45 -256 59 -71 10 -265 49 -313 61 -20 6 -49 10 -65 11 -30 0
-228 60 -240 72 -4 3 -1 13 6 22 18 21 72 19 153 -7z m8 -98 c21 -12 25 -35 8
-46 -6 -3 -15 -2 -21 4 -6 6 -18 8 -27 4 -14 -5 -13 -3 2 12 9 10 15 22 12 27
-8 12 2 11 26 -1z m-114 -36 c32 -14 91 -29 131 -34 83 -11 219 -36 273 -50
20 -6 54 -10 75 -9 38 1 37 1 -18 16 -45 12 -58 19 -58 34 0 23 23 24 119 8
126 -22 166 -66 55 -61 -41 2 -55 -1 -48 -8 11 -11 244 -63 251 -56 9 9 63
-16 63 -30 0 -7 -11 -21 -25 -30 -24 -15 -32 -15 -113 0 -138 27 -192 45 -218
73 -19 20 -27 24 -36 15 -28 -28 -201 -1 -242 37 -21 20 -24 20 -36 5 -16 -18
-68 -13 -163 16 -69 21 -97 44 -97 77 0 30 15 29 87 -3z m301 4 c14 -7 27 -18
29 -25 7 -21 -34 -24 -106 -8 -60 14 -71 20 -71 37 0 20 4 20 61 14 34 -3 73
-12 87 -18z m83 -22 c14 8 10 -3 -7 -20 -22 -22 -37 -10 -22 17 7 14 13 17 16
9 2 -6 8 -10 13 -6z m685 -77 c72 -30 124 -74 124 -105 0 -22 -29 -28 -48 -11
-22 21 -142 75 -204 94 -51 15 -59 26 -30 42 30 18 82 12 158 -20z m-367 7
c10 -6 12 -5 7 2 -5 8 -2 10 8 6 9 -3 16 -15 16 -25 0 -14 -7 -19 -27 -19 -37
0 -55 13 -48 32 7 17 21 18 44 4z m-234 -94 c-2 -3 -12 -1 -22 2 -15 6 -15 9
-3 16 13 8 35 -8 25 -18z m595 -12 c0 -3 -4 -11 -9 -19 -8 -12 -14 -13 -36 -3
-21 10 -24 16 -16 26 6 7 8 16 5 19 -4 3 8 1 25 -6 17 -6 31 -14 31 -17z m25
-86 c83 -40 155 -103 155 -136 0 -26 -26 -68 -41 -68 -6 0 -24 14 -42 31 -25
26 -29 34 -19 49 6 10 8 34 5 54 -5 35 -18 47 -25 25 -2 -6 -15 -11 -30 -11
-35 0 -178 58 -205 84 -22 21 -30 48 -17 61 6 6 108 -35 219 -89z m-602 67
c17 -6 18 -26 20 -264 2 -254 2 -258 -18 -252 -11 4 -53 11 -93 18 -55 8 -71
14 -67 25 3 7 5 121 5 252 l0 238 68 -6 c37 -2 75 -8 85 -11z m67 -2 c0 7 5 9
13 4 6 -4 17 -8 22 -10 6 -1 21 -4 34 -7 30 -7 35 -12 27 -31 -4 -11 -10 -13
-23 -6 -10 5 -30 12 -44 15 -30 6 -72 40 -62 50 4 4 13 -1 20 -10 8 -11 13
-13 13 -5z m602 -15 c61 -31 98 -66 98 -94 0 -11 -3 -20 -6 -20 -4 0 -44 21
-90 48 -66 37 -84 52 -84 70 0 29 18 28 82 -4z m149 -7 c50 -36 90 -137 74
-186 -3 -12 -12 -21 -20 -21 -8 0 -16 -17 -20 -41 -11 -64 -53 -103 -143 -133
-84 -28 -112 -32 -129 -15 -8 8 -17 8 -33 -1 -24 -13 -105 -6 -115 11 -4 5
-39 9 -80 9 -73 0 -111 15 -58 23 16 2 -2 5 -39 6 -38 0 -68 5 -68 11 0 10 48
15 111 11 20 -1 66 5 103 13 79 19 142 21 152 5 12 -20 -20 -29 -113 -29 -51
0 -93 -4 -93 -9 0 -5 43 -10 95 -10 52 0 100 -3 105 -6 6 -4 16 -2 23 3 7 5
44 19 83 30 75 23 124 54 124 78 0 8 -4 12 -10 9 -13 -8 -13 -4 5 39 16 37 32
45 53 24 9 -9 12 -8 12 7 -1 37 -37 100 -78 137 -46 41 -51 55 -24 60 25 6 53
-3 83 -25z m-408 -50 c4 3 7 1 7 -5 0 -7 9 -12 19 -12 11 0 21 -4 23 -9 2 -6
16 -12 32 -15 16 -3 34 -10 40 -16 5 -5 21 -10 34 -10 13 0 21 -4 17 -9 -3 -6
6 -7 23 -2 23 7 28 5 29 -10 2 -18 -51 -44 -67 -34 -5 3 -11 1 -15 -5 -3 -5
-21 -10 -39 -10 -19 0 -50 -7 -69 -15 -20 -8 -63 -15 -95 -15 -41 0 -64 -5
-72 -15 -7 -8 -23 -15 -36 -15 -13 0 -24 -4 -24 -9 0 -14 43 -10 62 7 10 9 35
13 71 11 30 -1 67 3 83 9 35 14 138 34 179 36 26 1 30 -3 30 -24 0 -23 -5 -26
-90 -42 -64 -13 -113 -16 -171 -12 -68 5 -83 4 -90 -9 -8 -13 -17 -14 -58 -5
-34 7 -45 13 -35 19 10 6 11 9 2 9 -10 0 -13 26 -12 98 0 53 -2 109 -6 125 -6
24 -4 27 16 27 13 0 39 -4 58 -10 24 -6 42 -6 65 4 29 12 33 11 57 -15 14 -16
29 -26 32 -22z m-303 14 l55 -18 3 -240 2 -240 -49 16 -49 16 -6 135 c-3 74
-9 183 -12 243 -3 59 -5 107 -3 107 2 0 29 -9 59 -19z m-486 -78 c4 -5 40 -8
79 -8 43 0 86 -7 107 -16 34 -15 31 -15 -85 -14 -130 1 -192 -7 -236 -29 -16
-8 -42 -17 -58 -21 -32 -7 -91 -66 -91 -90 0 -8 -4 -15 -10 -15 -5 0 -10 5
-10 11 0 20 -27 -10 -34 -37 -14 -55 92 -215 142 -214 15 1 15 2 -2 15 -10 8
-24 16 -29 18 -15 5 0 37 17 37 30 0 146 -59 146 -75 0 -25 -27 -29 -72 -10
l-43 17 19 -21 c24 -27 136 -62 201 -63 28 0 55 -4 60 -8 6 -3 26 -7 45 -9 65
-4 234 -32 315 -52 93 -23 256 -77 268 -89 13 -12 -22 -40 -51 -40 -35 0 -189
51 -210 70 -10 9 -36 15 -65 15 -28 0 -51 6 -56 13 -5 9 -17 11 -35 6 -46 -11
-153 6 -189 30 -29 20 -36 21 -53 9 -17 -11 -34 -11 -102 1 -98 17 -151 46
-159 87 -5 27 -7 28 -23 14 -9 -8 -22 -15 -28 -15 -20 0 -82 61 -102 100 -10
20 -25 42 -33 49 -20 16 -30 74 -22 123 12 70 147 187 217 188 13 1 34 7 48
15 26 15 121 20 134 8z m1176 -16 c0 -8 -3 -17 -7 -20 -9 -9 -34 13 -27 24 8
14 34 11 34 -4z m-1047 -49 c42 -6 77 -15 77 -18 0 -4 -54 -8 -120 -8 -117 -1
-147 8 -97 28 30 12 50 12 140 -2z m-176 -27 c9 -15 9 -20 0 -24 -7 -3 -18 6
-24 19 -14 30 6 34 24 5z m-50 -7 c4 -10 -1 -22 -11 -29 -14 -11 -15 -13 -1
-19 25 -9 17 -42 -16 -70 -41 -35 -59 -34 -59 3 0 20 8 35 27 49 l27 20 -38
-2 c-52 -1 -56 18 -9 43 47 25 72 26 80 5z m293 -28 c-5 -5 -31 -11 -57 -12
-27 -1 -64 -11 -83 -22 -50 -29 -113 -37 -130 -17 -16 20 -10 26 48 47 51 19
240 22 222 4z m870 -16 c0 -12 -37 -50 -48 -50 -5 0 -16 6 -26 13 -15 11 -15
15 -4 24 24 19 78 28 78 13z m-868 -97 c-1 -48 -1 -95 -1 -104 -1 -30 -71 -32
-128 -4 -45 23 -93 36 -134 36 -10 0 -31 13 -48 28 l-30 27 31 19 c17 10 45
19 62 21 17 2 47 7 66 10 19 4 38 7 43 6 4 -1 7 2 7 7 0 11 26 22 63 27 16 2
36 8 45 13 9 5 19 8 21 6 2 -2 3 -44 3 -92z m-416 78 c-3 -5 -15 -11 -26 -14
-17 -4 -19 -3 -9 9 12 15 44 20 35 5z m947 -18 c-7 -2 -21 -2 -30 0 -10 3 -4
5 12 5 17 0 24 -2 18 -5z m-133 -7 c0 -3 -4 -8 -10 -11 -5 -3 -10 -1 -10 4 0
6 5 11 10 11 6 0 10 -2 10 -4z m-800 -29 c0 -16 14 -35 41 -56 34 -28 40 -37
34 -60 -5 -21 -4 -24 6 -13 18 17 64 15 138 -7 66 -21 101 -44 101 -69 0 -12
-9 -13 -47 -8 -136 18 -268 79 -299 138 l-12 21 -7 -22 c-9 -30 -36 -23 -53
13 -13 26 -12 29 20 57 42 36 78 39 78 6z m1180 13 c8 -5 11 -10 5 -10 -5 0
-17 5 -25 10 -8 5 -10 10 -5 10 6 0 17 -5 25 -10z m-1684 -87 c50 -86 173
-209 269 -268 42 -26 74 -53 72 -59 -6 -18 -93 -29 -137 -18 -22 5 -40 7 -40
4 0 -3 16 -26 37 -51 156 -197 369 -331 530 -333 51 -1 69 3 101 24 64 43 88
121 93 308 1 36 4 55 6 43 3 -16 13 -24 36 -27 18 -3 50 -8 72 -11 22 -4 46
-7 53 -7 9 -1 12 -106 12 -491 l0 -490 -22 19 c-13 10 -36 30 -53 45 -58 52
-172 121 -330 201 -281 141 -388 214 -527 355 -76 78 -181 216 -193 254 -6 18
-13 14 -60 -38 -36 -39 -57 -55 -63 -48 -18 17 -35 185 -29 272 8 106 32 202
70 278 29 58 57 105 62 105 1 0 20 -30 41 -67z m2326 -28 c80 -156 100 -366
51 -547 -7 -28 -20 -22 -78 39 -30 32 -55 52 -55 44 0 -31 -121 -193 -215
-287 -114 -114 -260 -216 -421 -294 -57 -27 -150 -72 -206 -100 -57 -27 -134
-73 -172 -102 -118 -90 -111 -86 -98 -61 7 12 12 40 12 61 0 74 100 142 403
272 274 118 498 318 632 562 20 37 35 73 33 80 -2 6 -19 -15 -37 -48 -50 -89
-149 -211 -242 -299 -142 -133 -301 -227 -549 -325 -58 -22 -132 -57 -165 -77
-75 -45 -72 -42 -56 -52 18 -11 5 -32 -15 -24 -9 3 -14 13 -11 24 3 11 1 22
-4 25 -12 7 -11 41 2 49 6 4 9 -2 7 -17 -2 -12 2 -23 7 -23 7 0 9 122 7 351
l-3 352 55 -22 c55 -21 56 -22 56 -61 1 -104 43 -185 109 -212 27 -11 55 -14
108 -9 184 15 369 125 521 310 l64 76 -54 -6 c-51 -6 -138 9 -138 24 0 4 38
30 84 59 101 64 206 167 266 262 51 80 49 81 102 -24z m-1849 -25 c-6 -22 -33
-28 -33 -7 0 17 10 27 26 27 7 0 10 -8 7 -20z m611 -76 c44 -14 107 -27 140
-29 69 -4 181 -38 212 -64 22 -18 44 -53 44 -70 0 -18 -23 -13 -86 18 -76 37
-320 94 -502 117 -59 8 -77 28 -46 51 27 21 138 10 238 -23z m56 16 c0 -5 -7
-7 -15 -4 -8 4 -12 10 -9 15 6 11 24 2 24 -11z m-456 -36 c27 -10 20 -44 -9
-44 -26 0 -29 7 -19 34 7 18 7 18 28 10z m146 -17 c48 -9 66 -17 68 -30 5 -26
-23 -31 -97 -18 -79 14 -94 22 -85 44 7 20 26 20 114 4z m136 -48 c0 -10 -1
-19 -2 -19 -20 0 -52 22 -48 33 8 21 50 9 50 -14z m147 2 c107 -19 137 -30
137 -51 0 -25 -9 -25 -143 2 -70 13 -111 26 -114 36 -7 18 16 33 42 27 11 -3
46 -9 78 -14z m223 -73 c10 -16 -13 -31 -39 -24 -18 4 -24 13 -24 30 0 22 2
23 28 14 16 -5 32 -14 35 -20z m103 -24 c84 -29 151 -92 131 -124 -6 -10 -26
-2 -81 33 -41 25 -86 50 -101 56 -18 7 -28 18 -28 31 0 24 19 25 79 4z m196
-32 c22 -15 55 -50 73 -77 31 -47 32 -54 27 -110 -9 -82 -13 -95 -34 -95 -13
0 -21 14 -30 55 -7 30 -10 59 -6 65 16 26 -47 100 -139 162 -6 4 -5 12 4 23
17 21 52 13 105 -23z m-495 -34 c0 -5 5 -6 10 -3 6 4 17 1 25 -5 8 -7 15 -9
15 -4 0 5 4 2 9 -6 11 -15 5 -30 -10 -30 -6 0 -8 4 -4 9 3 6 -6 7 -22 2 -23
-7 -33 -3 -55 20 l-28 28 30 -1 c17 -1 30 -5 30 -10z m389 -80 l58 -53 -1 -57
c-1 -47 -4 -58 -18 -58 -20 0 -48 37 -48 64 0 11 -15 36 -34 56 -34 34 -40 47
-37 83 2 27 17 21 80 -35z m-269 27 c0 -16 -9 -19 -34 -9 -20 8 -11 24 15 24
10 0 19 -7 19 -15z m46 -14 c-2 -3 21 -7 52 -8 47 -2 60 -6 72 -25 8 -12 28
-37 43 -55 16 -18 26 -36 23 -41 -10 -16 54 -82 79 -82 27 0 41 -15 24 -25
-50 -32 -204 -37 -246 -10 -47 31 -56 58 -68 189 -6 67 -5 75 9 70 9 -3 14 -9
12 -13z m317 -15 c15 -22 15 -24 -3 -29 -25 -7 -54 25 -38 41 17 17 24 15 41
-12z m25 -86 c6 -22 12 -53 12 -70 0 -25 -4 -30 -24 -30 -22 0 -26 6 -32 46
-6 44 6 94 23 94 5 0 14 -18 21 -40z m-521 -467 c-3 -10 -5 -4 -5 12 0 17 2
24 5 18 2 -7 2 -21 0 -30z"/>
<path d="M1950 2640 c0 -5 20 -44 45 -85 105 -178 233 -316 389 -418 109 -72
170 -103 346 -172 80 -31 160 -65 178 -76 39 -23 49 -24 33 -5 -13 15 -95 57
-201 101 -342 143 -599 351 -737 596 -35 63 -53 83 -53 59z"/>
</g>
</svg>
