<svg xmlns="http://www.w3.org/2000/svg" xmlns:xlink="http://www.w3.org/1999/xlink" width="200" zoomAndPan="magnify" viewBox="0 0 150 149.999998" height="200" preserveAspectRatio="xMidYMid meet" version="1.0"><defs><g/><clipPath id="021cd552ca"><rect x="0" width="150" y="0" height="52"/></clipPath></defs><g transform="matrix(1, 0, 0, 1, 0, 46)"><g clip-path="url(#021cd552ca)"><g fill="#000000" fill-opacity="1"><g transform="translate(2.346003, 37.755211)"><g><path d="M 5.1875 -21.765625 C 4.132812 -21.765625 3.269531 -22.078125 2.59375 -22.703125 C 1.925781 -23.328125 1.59375 -24.097656 1.59375 -25.015625 C 1.59375 -25.953125 1.925781 -26.734375 2.59375 -27.359375 C 3.269531 -27.984375 4.132812 -28.296875 5.1875 -28.296875 C 6.226562 -28.296875 7.082031 -27.984375 7.75 -27.359375 C 8.425781 -26.734375 8.765625 -25.953125 8.765625 -25.015625 C 8.765625 -24.097656 8.425781 -23.328125 7.75 -22.703125 C 7.082031 -22.078125 6.226562 -21.765625 5.1875 -21.765625 Z M 8.234375 2.546875 C 8.234375 4.972656 7.617188 6.71875 6.390625 7.78125 C 5.171875 8.851562 3.460938 9.390625 1.265625 9.390625 L -1.09375 9.390625 L -1.09375 4.28125 L 0.359375 4.28125 C 1.015625 4.28125 1.484375 4.148438 1.765625 3.890625 C 2.046875 3.628906 2.1875 3.203125 2.1875 2.609375 L 2.1875 -19.71875 L 8.234375 -19.71875 Z M 8.234375 2.546875 "/></g></g></g><g fill="#000000" fill-opacity="1"><g transform="translate(12.732462, 37.755211)"><g><path d="M 0.984375 -9.890625 C 0.984375 -11.921875 1.363281 -13.695312 2.125 -15.21875 C 2.894531 -16.75 3.941406 -17.925781 5.265625 -18.75 C 6.585938 -19.582031 8.0625 -20 9.6875 -20 C 11.070312 -20 12.285156 -19.710938 13.328125 -19.140625 C 14.378906 -18.578125 15.1875 -17.835938 15.75 -16.921875 L 15.75 -19.71875 L 21.796875 -19.71875 L 21.796875 0 L 15.75 0 L 15.75 -2.796875 C 15.164062 -1.867188 14.347656 -1.125 13.296875 -0.5625 C 12.253906 0 11.035156 0.28125 9.640625 0.28125 C 8.046875 0.28125 6.585938 -0.132812 5.265625 -0.96875 C 3.941406 -1.800781 2.894531 -2.988281 2.125 -4.53125 C 1.363281 -6.082031 0.984375 -7.867188 0.984375 -9.890625 Z M 15.75 -9.859375 C 15.75 -11.367188 15.332031 -12.554688 14.5 -13.421875 C 13.664062 -14.296875 12.648438 -14.734375 11.453125 -14.734375 C 10.242188 -14.734375 9.222656 -14.300781 8.390625 -13.4375 C 7.554688 -12.582031 7.140625 -11.398438 7.140625 -9.890625 C 7.140625 -8.378906 7.554688 -7.179688 8.390625 -6.296875 C 9.222656 -5.421875 10.242188 -4.984375 11.453125 -4.984375 C 12.648438 -4.984375 13.664062 -5.414062 14.5 -6.28125 C 15.332031 -7.15625 15.75 -8.347656 15.75 -9.859375 Z M 15.75 -9.859375 "/></g></g></g><g fill="#000000" fill-opacity="1"><g transform="translate(36.720251, 37.755211)"><g><path d="M 14.203125 -19.921875 C 16.515625 -19.921875 18.359375 -19.171875 19.734375 -17.671875 C 21.109375 -16.179688 21.796875 -14.128906 21.796875 -11.515625 L 21.796875 0 L 15.796875 0 L 15.796875 -10.703125 C 15.796875 -12.023438 15.453125 -13.050781 14.765625 -13.78125 C 14.085938 -14.507812 13.171875 -14.875 12.015625 -14.875 C 10.859375 -14.875 9.9375 -14.507812 9.25 -13.78125 C 8.570312 -13.050781 8.234375 -12.023438 8.234375 -10.703125 L 8.234375 0 L 2.1875 0 L 2.1875 -19.71875 L 8.234375 -19.71875 L 8.234375 -17.09375 C 8.847656 -17.96875 9.671875 -18.65625 10.703125 -19.15625 C 11.742188 -19.664062 12.910156 -19.921875 14.203125 -19.921875 Z M 14.203125 -19.921875 "/></g></g></g><g fill="#000000" fill-opacity="1"><g transform="translate(60.531396, 37.755211)"><g><path d="M 20.765625 -10.171875 C 20.765625 -9.609375 20.734375 -9.019531 20.671875 -8.40625 L 7 -8.40625 C 7.09375 -7.1875 7.484375 -6.25 8.171875 -5.59375 C 8.867188 -4.945312 9.722656 -4.625 10.734375 -4.625 C 12.242188 -4.625 13.296875 -5.257812 13.890625 -6.53125 L 20.3125 -6.53125 C 19.976562 -5.238281 19.378906 -4.070312 18.515625 -3.03125 C 17.660156 -2 16.585938 -1.1875 15.296875 -0.59375 C 14.003906 -0.0078125 12.554688 0.28125 10.953125 0.28125 C 9.023438 0.28125 7.304688 -0.128906 5.796875 -0.953125 C 4.285156 -1.773438 3.101562 -2.953125 2.25 -4.484375 C 1.40625 -6.015625 0.984375 -7.804688 0.984375 -9.859375 C 0.984375 -11.910156 1.398438 -13.695312 2.234375 -15.21875 C 3.078125 -16.75 4.25 -17.925781 5.75 -18.75 C 7.257812 -19.582031 8.992188 -20 10.953125 -20 C 12.859375 -20 14.550781 -19.597656 16.03125 -18.796875 C 17.519531 -17.992188 18.679688 -16.847656 19.515625 -15.359375 C 20.347656 -13.878906 20.765625 -12.148438 20.765625 -10.171875 Z M 14.59375 -11.765625 C 14.59375 -12.796875 14.238281 -13.617188 13.53125 -14.234375 C 12.820312 -14.847656 11.9375 -15.15625 10.875 -15.15625 C 9.863281 -15.15625 9.007812 -14.859375 8.3125 -14.265625 C 7.625 -13.679688 7.195312 -12.847656 7.03125 -11.765625 Z M 14.59375 -11.765625 "/></g></g></g><g fill="#000000" fill-opacity="1"><g transform="translate(82.293495, 37.755211)"><g><path d="M 20.765625 -10.171875 C 20.765625 -9.609375 20.734375 -9.019531 20.671875 -8.40625 L 7 -8.40625 C 7.09375 -7.1875 7.484375 -6.25 8.171875 -5.59375 C 8.867188 -4.945312 9.722656 -4.625 10.734375 -4.625 C 12.242188 -4.625 13.296875 -5.257812 13.890625 -6.53125 L 20.3125 -6.53125 C 19.976562 -5.238281 19.378906 -4.070312 18.515625 -3.03125 C 17.660156 -2 16.585938 -1.1875 15.296875 -0.59375 C 14.003906 -0.0078125 12.554688 0.28125 10.953125 0.28125 C 9.023438 0.28125 7.304688 -0.128906 5.796875 -0.953125 C 4.285156 -1.773438 3.101562 -2.953125 2.25 -4.484375 C 1.40625 -6.015625 0.984375 -7.804688 0.984375 -9.859375 C 0.984375 -11.910156 1.398438 -13.695312 2.234375 -15.21875 C 3.078125 -16.75 4.25 -17.925781 5.75 -18.75 C 7.257812 -19.582031 8.992188 -20 10.953125 -20 C 12.859375 -20 14.550781 -19.597656 16.03125 -18.796875 C 17.519531 -17.992188 18.679688 -16.847656 19.515625 -15.359375 C 20.347656 -13.878906 20.765625 -12.148438 20.765625 -10.171875 Z M 14.59375 -11.765625 C 14.59375 -12.796875 14.238281 -13.617188 13.53125 -14.234375 C 12.820312 -14.847656 11.9375 -15.15625 10.875 -15.15625 C 9.863281 -15.15625 9.007812 -14.859375 8.3125 -14.265625 C 7.625 -13.679688 7.195312 -12.847656 7.03125 -11.765625 Z M 14.59375 -11.765625 "/></g></g></g><g fill="#000000" fill-opacity="1"><g transform="translate(104.055595, 37.755211)"><g><path d="M 10.203125 0.28125 C 8.484375 0.28125 6.953125 -0.0078125 5.609375 -0.59375 C 4.273438 -1.1875 3.21875 -1.992188 2.4375 -3.015625 C 1.65625 -4.046875 1.21875 -5.195312 1.125 -6.46875 L 7.09375 -6.46875 C 7.164062 -5.78125 7.484375 -5.222656 8.046875 -4.796875 C 8.617188 -4.378906 9.316406 -4.171875 10.140625 -4.171875 C 10.890625 -4.171875 11.46875 -4.316406 11.875 -4.609375 C 12.289062 -4.898438 12.5 -5.285156 12.5 -5.765625 C 12.5 -6.328125 12.203125 -6.742188 11.609375 -7.015625 C 11.023438 -7.285156 10.078125 -7.582031 8.765625 -7.90625 C 7.347656 -8.238281 6.164062 -8.585938 5.21875 -8.953125 C 4.28125 -9.316406 3.46875 -9.894531 2.78125 -10.6875 C 2.101562 -11.476562 1.765625 -12.546875 1.765625 -13.890625 C 1.765625 -15.015625 2.078125 -16.039062 2.703125 -16.96875 C 3.328125 -17.90625 4.242188 -18.644531 5.453125 -19.1875 C 6.671875 -19.726562 8.113281 -20 9.78125 -20 C 12.257812 -20 14.207031 -19.382812 15.625 -18.15625 C 17.050781 -16.9375 17.875 -15.3125 18.09375 -13.28125 L 12.5 -13.28125 C 12.40625 -13.96875 12.101562 -14.507812 11.59375 -14.90625 C 11.09375 -15.3125 10.429688 -15.515625 9.609375 -15.515625 C 8.898438 -15.515625 8.359375 -15.378906 7.984375 -15.109375 C 7.609375 -14.835938 7.421875 -14.460938 7.421875 -13.984375 C 7.421875 -13.421875 7.71875 -13 8.3125 -12.71875 C 8.914062 -12.4375 9.851562 -12.15625 11.125 -11.875 C 12.582031 -11.5 13.769531 -11.125 14.6875 -10.75 C 15.613281 -10.382812 16.421875 -9.796875 17.109375 -8.984375 C 17.804688 -8.171875 18.164062 -7.082031 18.1875 -5.71875 C 18.1875 -4.5625 17.863281 -3.53125 17.21875 -2.625 C 16.570312 -1.71875 15.640625 -1.003906 14.421875 -0.484375 C 13.210938 0.0234375 11.804688 0.28125 10.203125 0.28125 Z M 10.203125 0.28125 "/></g></g></g><g fill="#000000" fill-opacity="1"><g transform="translate(123.768683, 37.755211)"><g><path d="M 14.3125 -19.921875 C 16.570312 -19.921875 18.382812 -19.171875 19.75 -17.671875 C 21.113281 -16.179688 21.796875 -14.128906 21.796875 -11.515625 L 21.796875 0 L 15.796875 0 L 15.796875 -10.703125 C 15.796875 -12.023438 15.453125 -13.050781 14.765625 -13.78125 C 14.085938 -14.507812 13.171875 -14.875 12.015625 -14.875 C 10.859375 -14.875 9.9375 -14.507812 9.25 -13.78125 C 8.570312 -13.050781 8.234375 -12.023438 8.234375 -10.703125 L 8.234375 0 L 2.1875 0 L 2.1875 -26.140625 L 8.234375 -26.140625 L 8.234375 -17.0625 C 8.847656 -17.9375 9.679688 -18.628906 10.734375 -19.140625 C 11.796875 -19.660156 12.988281 -19.921875 14.3125 -19.921875 Z M 14.3125 -19.921875 "/></g></g></g></g></g></svg>